<svg xmlns="http://www.w3.org/2000/svg" xmlns:xlink="http://www.w3.org/1999/xlink" width="1366" zoomAndPan="magnify" viewBox="0 0 1024.5 576" height="768" preserveAspectRatio="xMidYMid meet" version="1.0"><path fill="#caddff" d="M 367.476562 303.710938 C 395.125 273.140625 343.03125 216.199219 355.984375 175.054688 C 373.421875 119.667969 515.269531 72.183594 610.746094 132.480469 C 690.699219 182.976562 718.464844 296.640625 683.535156 342.585938 C 673.078125 356.335938 660.070312 359.992188 642.984375 374.371094 C 627.085938 387.75 625.300781 391.164062 624.152344 393.492188 C 612.847656 416.464844 636.625 436.621094 631.835938 456.324219 C 624.28125 487.457031 548.675781 504.0625 485.457031 493.527344 C 468.40625 490.6875 382.015625 474.164062 350.238281 405.523438 C 347.78125 400.210938 324.515625 348.910156 346.40625 320.371094 C 354 310.472656 360.105469 311.859375 367.476562 303.710938 " fill-opacity="1" fill-rule="nonzero"/><path fill="#5479f7" d="M 649.304688 178.25 C 641.296875 170.34375 641.175781 157.402344 649.039062 149.347656 C 656.902344 141.292969 669.765625 141.171875 677.777344 149.082031 C 685.78125 156.988281 685.902344 169.929688 678.039062 177.984375 C 670.175781 186.039062 657.3125 186.160156 649.304688 178.25 " fill-opacity="1" fill-rule="nonzero"/><path fill="#ffffff" d="M 677.308594 162.570312 L 663.503906 176.714844 C 662.773438 177.460938 661.578125 177.472656 660.832031 176.738281 L 651.125 167.148438 C 650.378906 166.414062 650.371094 165.210938 651.101562 164.460938 L 664.902344 150.320312 C 665.632812 149.574219 666.828125 149.5625 667.574219 150.296875 L 677.28125 159.886719 C 678.027344 160.621094 678.039062 161.820312 677.308594 162.570312 " fill-opacity="1" fill-rule="nonzero"/><path fill="#000000" d="M 666.246094 150.464844 C 666.246094 150.464844 666.242188 150.464844 666.238281 150.464844 C 665.921875 150.464844 665.628906 150.59375 665.410156 150.816406 L 651.605469 164.960938 C 651.148438 165.429688 651.152344 166.183594 651.617188 166.648438 L 661.328125 176.234375 C 661.554688 176.460938 661.867188 176.566406 662.164062 176.574219 C 662.480469 176.574219 662.773438 176.445312 662.996094 176.21875 L 676.796875 162.078125 C 677.253906 161.609375 677.25 160.851562 676.78125 160.390625 L 667.074219 150.800781 C 666.851562 150.582031 666.558594 150.464844 666.246094 150.464844 Z M 662.152344 177.992188 C 661.46875 177.992188 660.824219 177.730469 660.335938 177.242188 L 650.625 167.65625 C 649.601562 166.648438 649.589844 164.992188 650.589844 163.96875 L 664.390625 149.828125 C 664.878906 149.332031 665.527344 149.050781 666.226562 149.042969 C 666.941406 149.042969 667.574219 149.304688 668.070312 149.792969 L 677.777344 159.382812 C 678.800781 160.386719 678.8125 162.042969 677.8125 163.070312 L 664.011719 177.210938 C 663.523438 177.710938 662.871094 177.988281 662.175781 177.992188 C 662.171875 177.992188 662.164062 177.992188 662.152344 177.992188 " fill-opacity="1" fill-rule="nonzero"/><path fill="#000000" d="M 656.007812 166.632812 C 655.679688 166.632812 655.386719 166.410156 655.316406 166.074219 C 655.230469 165.695312 655.472656 165.316406 655.855469 165.230469 L 664.664062 163.304688 C 665.046875 163.21875 665.425781 163.460938 665.507812 163.84375 C 665.59375 164.226562 665.351562 164.605469 664.96875 164.691406 L 656.160156 166.617188 C 656.109375 166.628906 656.058594 166.632812 656.007812 166.632812 " fill-opacity="1" fill-rule="nonzero"/><path fill="#000000" d="M 664.851562 164.671875 C 664.808594 164.671875 664.761719 164.664062 664.71875 164.65625 C 664.332031 164.582031 664.082031 164.207031 664.15625 163.824219 L 665.914062 154.925781 C 665.988281 154.542969 666.367188 154.292969 666.746094 154.367188 C 667.128906 154.441406 667.378906 154.816406 667.304688 155.199219 L 665.550781 164.097656 C 665.484375 164.433594 665.183594 164.671875 664.851562 164.671875 " fill-opacity="1" fill-rule="nonzero"/><path fill="#5479f7" d="M 643.757812 130.730469 C 643.757812 141.019531 635.417969 149.359375 625.132812 149.359375 C 614.84375 149.359375 606.503906 141.019531 606.503906 130.730469 C 606.503906 120.445312 614.84375 112.101562 625.132812 112.101562 C 635.417969 112.101562 643.757812 120.445312 643.757812 130.730469 " fill-opacity="1" fill-rule="nonzero"/><path fill="#ffffff" d="M 632.929688 129.207031 L 622.957031 122.445312 C 621.734375 121.617188 620.082031 122.496094 620.082031 123.972656 L 620.082031 137.492188 C 620.082031 138.972656 621.734375 139.847656 622.957031 139.015625 L 632.929688 132.257812 C 634.007812 131.527344 634.007812 129.9375 632.929688 129.207031 " fill-opacity="1" fill-rule="nonzero"/><path fill="#ffffff" d="M 619.429688 269.304688 L 317.183594 269.304688 C 310.511719 269.304688 306.078125 274.601562 307.277344 281.136719 L 344.59375 484.113281 C 345.796875 490.652344 352.175781 495.945312 358.847656 495.945312 L 661.097656 495.945312 C 667.769531 495.945312 672.203125 490.652344 671.003906 484.113281 L 633.683594 281.136719 C 632.484375 274.601562 626.101562 269.304688 619.429688 269.304688 " fill-opacity="1" fill-rule="nonzero"/><path fill="#000000" d="M 317.183594 270.015625 C 314.160156 270.015625 311.539062 271.160156 309.808594 273.246094 C 308.085938 275.3125 307.433594 278.070312 307.976562 281.007812 L 345.289062 483.984375 C 346.429688 490.191406 352.511719 495.238281 358.847656 495.238281 L 661.09375 495.238281 C 664.117188 495.238281 666.734375 494.089844 668.46875 492.011719 C 670.191406 489.941406 670.84375 487.183594 670.300781 484.242188 L 632.984375 281.265625 C 631.847656 275.0625 625.765625 270.015625 619.429688 270.015625 Z M 661.09375 496.65625 L 358.847656 496.65625 C 351.863281 496.65625 345.152344 491.085938 343.894531 484.242188 L 306.582031 281.265625 C 305.960938 277.902344 306.722656 274.734375 308.71875 272.335938 C 310.726562 269.925781 313.730469 268.597656 317.183594 268.597656 L 619.429688 268.597656 C 626.417969 268.597656 633.125 274.164062 634.382812 281.007812 L 671.695312 483.984375 C 672.3125 487.351562 671.558594 490.519531 669.558594 492.917969 C 667.550781 495.328125 664.546875 496.65625 661.09375 496.65625 " fill-opacity="1" fill-rule="nonzero"/><path fill="#99b9ff" d="M 359.1875 489.320312 C 355.171875 489.320312 351.320312 486.144531 350.601562 482.234375 L 313.90625 282.617188 C 313.1875 278.710938 315.867188 275.53125 319.882812 275.53125 L 619.015625 275.53125 C 623.03125 275.53125 626.882812 278.710938 627.601562 282.617188 L 664.300781 482.234375 C 665.019531 486.144531 662.335938 489.320312 658.324219 489.320312 L 359.1875 489.320312 " fill-opacity="1" fill-rule="nonzero"/><path fill="#ffffff" d="M 578.035156 346.90625 L 510.902344 346.90625 C 505.085938 346.90625 501.234375 351.621094 502.304688 357.441406 C 503.375 363.261719 508.957031 367.976562 514.777344 367.976562 L 581.914062 367.976562 C 587.730469 367.976562 591.578125 363.261719 590.507812 357.441406 C 589.4375 351.621094 583.855469 346.90625 578.035156 346.90625 " fill-opacity="1" fill-rule="nonzero"/><path fill="#caddff" d="M 607.167969 401.753906 L 501.945312 401.753906 L 499.082031 386.175781 L 604.304688 386.175781 L 607.167969 401.753906 " fill-opacity="1" fill-rule="nonzero"/><path fill="#caddff" d="M 611.816406 427.046875 L 506.59375 427.046875 L 503.730469 411.472656 L 608.953125 411.472656 L 611.816406 427.046875 " fill-opacity="1" fill-rule="nonzero"/><path fill="#ffffff" d="M 435.296875 179.050781 C 432.074219 179.050781 429.269531 180.289062 427.402344 182.535156 C 425.484375 184.835938 424.761719 187.925781 425.371094 191.234375 L 448.941406 319.445312 C 450.199219 326.300781 456.800781 331.878906 463.652344 331.878906 L 541.566406 331.878906 C 544.789062 331.878906 547.589844 330.640625 549.460938 328.398438 C 551.375 326.097656 552.097656 323.007812 551.492188 319.699219 L 527.921875 191.488281 C 526.660156 184.632812 520.0625 179.050781 513.210938 179.050781 Z M 541.566406 333.296875 L 463.652344 333.296875 C 456.148438 333.296875 448.925781 327.199219 447.546875 319.699219 L 423.976562 191.488281 C 423.289062 187.761719 424.121094 184.257812 426.3125 181.628906 C 428.457031 179.050781 431.644531 177.636719 435.296875 177.636719 L 513.210938 177.636719 C 520.710938 177.636719 527.9375 183.734375 529.316406 191.234375 L 552.886719 319.445312 C 553.570312 323.171875 552.742188 326.675781 550.550781 329.308594 C 548.40625 331.878906 545.214844 333.296875 541.566406 333.296875 " fill-opacity="1" fill-rule="nonzero"/><path fill="#5479f7" d="M 541.566406 333.296875 L 538.371094 333.296875 C 537.980469 333.296875 537.664062 332.980469 537.664062 332.589844 C 537.664062 332.199219 537.980469 331.882812 538.371094 331.882812 L 541.566406 331.882812 C 544.785156 331.882812 547.589844 330.644531 549.460938 328.398438 C 551.378906 326.097656 552.097656 323.007812 551.488281 319.699219 L 545.800781 288.761719 C 545.730469 288.375 545.984375 288.003906 546.371094 287.933594 C 546.757812 287.859375 547.125 288.117188 547.195312 288.503906 L 552.882812 319.445312 C 553.570312 323.171875 552.742188 326.675781 550.550781 329.308594 C 548.40625 331.882812 545.214844 333.296875 541.566406 333.296875 " fill-opacity="1" fill-rule="nonzero"/><path fill="#5479f7" d="M 540.820312 258.460938 C 540.488281 258.460938 540.1875 258.222656 540.125 257.878906 L 527.921875 191.488281 C 526.660156 184.632812 520.0625 179.050781 513.210938 179.050781 L 435.296875 179.050781 C 432.074219 179.050781 429.269531 180.289062 427.402344 182.535156 C 425.484375 184.835938 424.761719 187.925781 425.371094 191.234375 L 431.257812 223.25 C 431.328125 223.632812 431.074219 224.003906 430.6875 224.074219 C 430.300781 224.148438 429.933594 223.890625 429.863281 223.507812 L 423.976562 191.488281 C 423.289062 187.761719 424.121094 184.257812 426.3125 181.628906 C 428.457031 179.050781 431.644531 177.636719 435.296875 177.636719 L 513.210938 177.636719 C 520.710938 177.636719 527.9375 183.734375 529.316406 191.234375 L 541.519531 257.625 C 541.59375 258.007812 541.335938 258.375 540.953125 258.445312 C 540.910156 258.457031 540.863281 258.460938 540.820312 258.460938 " fill-opacity="1" fill-rule="nonzero"/><path fill="#ffffff" d="M 456.910156 218.671875 C 454.390625 204.96875 463.449219 193.855469 477.140625 193.855469 C 490.835938 193.855469 503.980469 204.96875 506.5 218.671875 C 509.019531 232.382812 499.960938 243.492188 486.269531 243.492188 C 472.574219 243.492188 459.429688 232.382812 456.910156 218.671875 " fill-opacity="1" fill-rule="nonzero"/><path fill="#caddff" d="M 486.269531 244.203125 C 472.269531 244.203125 458.789062 232.808594 456.214844 218.804688 C 455.660156 215.792969 455.636719 212.839844 456.144531 210.035156 C 456.214844 209.648438 456.582031 209.394531 456.96875 209.460938 C 457.355469 209.53125 457.613281 209.898438 457.539062 210.285156 C 457.0625 212.925781 457.085938 215.703125 457.605469 218.546875 C 460.0625 231.910156 472.921875 242.785156 486.269531 242.785156 C 492.59375 242.785156 498.109375 240.347656 501.792969 235.925781 C 505.574219 231.382812 506.996094 225.304688 505.800781 218.804688 C 503.34375 205.4375 490.488281 194.566406 477.140625 194.566406 C 469.945312 194.566406 463.789062 197.746094 460.246094 203.296875 C 460.039062 203.628906 459.601562 203.722656 459.269531 203.515625 C 458.941406 203.304688 458.84375 202.867188 459.054688 202.535156 C 462.859375 196.570312 469.453125 193.148438 477.140625 193.148438 C 491.140625 193.148438 504.621094 204.542969 507.195312 218.546875 C 508.46875 225.46875 506.9375 231.960938 502.878906 236.832031 C 498.925781 241.585938 493.023438 244.203125 486.269531 244.203125 " fill-opacity="1" fill-rule="nonzero"/><path fill="#caddff" d="M 478.324219 202.347656 C 478.324219 202.347656 473.09375 198.578125 468.589844 206.464844 C 464.609375 213.421875 472.488281 219.660156 471.023438 223.996094 C 469.554688 228.328125 462.316406 230.691406 462.316406 230.691406 C 462.316406 230.691406 465.679688 235.617188 469.128906 237.78125 L 501.5 237.78125 C 501.5 237.78125 506.851562 230.496094 506.46875 228.425781 C 506.46875 228.425781 499.214844 228.03125 497.585938 221.828125 C 495.953125 215.625 497.972656 211.75 490.558594 204.742188 C 482.875 197.480469 478.324219 202.347656 478.324219 202.347656 " fill-opacity="1" fill-rule="nonzero"/><path fill="#99b9ff" d="M 468.015625 236.726562 C 473.226562 240.917969 479.679688 243.496094 486.269531 243.496094 C 492.855469 243.496094 498.363281 240.917969 502.03125 236.726562 C 496.601562 235.132812 490.667969 234.234375 484.566406 234.234375 C 478.464844 234.234375 472.859375 235.132812 468.015625 236.726562 " fill-opacity="1" fill-rule="nonzero"/><path fill="#caddff" d="M 469.527344 236.996094 C 474.59375 240.738281 480.492188 242.785156 486.269531 242.785156 C 491.992188 242.785156 497.074219 240.769531 500.722656 237.089844 C 495.5 235.664062 490.066406 234.945312 484.566406 234.945312 C 479.1875 234.945312 474.136719 235.632812 469.527344 236.996094 Z M 486.269531 244.203125 C 479.761719 244.203125 473.121094 241.742188 467.570312 237.273438 C 467.367188 237.113281 467.269531 236.851562 467.316406 236.597656 C 467.363281 236.339844 467.546875 236.132812 467.792969 236.050781 C 472.886719 234.375 478.53125 233.527344 484.566406 233.527344 C 490.59375 233.527344 496.535156 234.375 502.234375 236.042969 C 502.464844 236.109375 502.644531 236.292969 502.710938 236.527344 C 502.78125 236.757812 502.726562 237.007812 502.566406 237.191406 C 498.609375 241.714844 492.824219 244.203125 486.269531 244.203125 " fill-opacity="1" fill-rule="nonzero"/><path fill="#ffffff" d="M 485.484375 238.429688 C 483.324219 238.429688 481.246094 236.675781 480.851562 234.511719 L 477.179688 214.539062 L 485.003906 214.539062 L 488.679688 234.511719 C 489.074219 236.675781 487.644531 238.429688 485.484375 238.429688 " fill-opacity="1" fill-rule="nonzero"/><path fill="#caddff" d="M 478.03125 215.246094 L 481.546875 234.382812 C 481.886719 236.222656 483.652344 237.71875 485.484375 237.71875 C 486.300781 237.71875 487.011719 237.414062 487.476562 236.851562 C 487.957031 236.273438 488.136719 235.488281 487.980469 234.640625 L 484.414062 215.246094 Z M 485.484375 239.140625 C 483 239.140625 480.609375 237.121094 480.152344 234.640625 L 476.480469 214.667969 C 476.445312 214.457031 476.5 214.246094 476.636719 214.085938 C 476.769531 213.921875 476.96875 213.828125 477.179688 213.828125 L 485.003906 213.828125 C 485.347656 213.828125 485.640625 214.074219 485.703125 214.410156 L 489.375 234.382812 C 489.605469 235.652344 489.320312 236.851562 488.566406 237.761719 C 487.824219 238.648438 486.730469 239.140625 485.484375 239.140625 " fill-opacity="1" fill-rule="nonzero"/><path fill="#ffffff" d="M 483.757812 228.425781 C 488.160156 228.425781 491.070312 224.851562 490.261719 220.449219 L 489.398438 215.75 C 488.617188 211.488281 484.53125 208.039062 480.28125 208.039062 L 472.042969 208.039062 L 474.324219 220.449219 C 474.914062 223.675781 477.34375 226.457031 480.332031 227.710938 L 483.757812 228.425781 " fill-opacity="1" fill-rule="nonzero"/><path fill="#caddff" d="M 483.757812 229.136719 C 483.367188 229.136719 483.050781 228.816406 483.050781 228.425781 C 483.050781 228.035156 483.367188 227.71875 483.757812 227.71875 C 485.644531 227.71875 487.289062 226.992188 488.378906 225.683594 C 489.503906 224.335938 489.925781 222.523438 489.5625 220.578125 L 488.703125 215.878906 C 487.976562 211.945312 484.199219 208.746094 480.277344 208.746094 L 472.894531 208.746094 L 475.023438 220.320312 C 475.550781 223.210938 477.746094 225.855469 480.605469 227.058594 C 480.964844 227.210938 481.132812 227.625 480.980469 227.984375 C 480.832031 228.347656 480.414062 228.515625 480.054688 228.367188 C 476.765625 226.984375 474.242188 223.925781 473.625 220.578125 L 471.34375 208.164062 C 471.304688 207.960938 471.363281 207.746094 471.496094 207.585938 C 471.632812 207.421875 471.832031 207.328125 472.039062 207.328125 L 480.277344 207.328125 C 484.851562 207.328125 489.253906 211.050781 490.09375 215.621094 L 490.960938 220.320312 C 491.394531 222.6875 490.867188 224.914062 489.46875 226.59375 C 488.105469 228.230469 486.074219 229.136719 483.757812 229.136719 " fill-opacity="1" fill-rule="nonzero"/><path fill="#caddff" d="M 480.554688 208.332031 L 473.824219 216.113281 L 472.335938 208.039062 C 472.335938 208.039062 480.59375 208.53125 480.554688 208.332031 " fill-opacity="1" fill-rule="nonzero"/><path fill="#caddff" d="M 522.445312 288.261719 L 460.597656 288.261719 C 459.171875 288.261719 457.800781 287.105469 457.539062 285.679688 L 457.539062 285.675781 C 457.277344 284.25 458.21875 283.09375 459.644531 283.09375 L 521.5 283.09375 C 522.925781 283.09375 524.292969 284.25 524.554688 285.675781 L 524.554688 285.679688 C 524.816406 287.105469 523.871094 288.261719 522.445312 288.261719 " fill-opacity="1" fill-rule="nonzero"/><path fill="#caddff" d="M 535.480469 301.78125 L 462.605469 301.78125 C 461.179688 301.78125 459.8125 300.625 459.550781 299.199219 C 459.285156 297.773438 460.230469 296.613281 461.65625 296.613281 L 534.527344 296.613281 C 535.953125 296.613281 537.324219 297.773438 537.582031 299.199219 L 537.585938 299.199219 C 537.847656 300.625 536.902344 301.78125 535.480469 301.78125 " fill-opacity="1" fill-rule="nonzero"/><path fill="#99b9ff" d="M 508.796875 264.121094 L 477.117188 264.121094 C 475.011719 264.121094 472.988281 262.414062 472.601562 260.308594 L 472.601562 260.300781 C 472.214844 258.195312 473.609375 256.488281 475.714844 256.488281 L 507.390625 256.488281 C 509.5 256.488281 511.519531 258.195312 511.90625 260.300781 L 511.910156 260.308594 C 512.296875 262.414062 510.902344 264.121094 508.796875 264.121094 " fill-opacity="1" fill-rule="nonzero"/><path fill="#5479f7" d="M 416.457031 127.289062 C 415.535156 127.289062 324.238281 127.320312 322.835938 127.390625 C 319.519531 127.785156 316.640625 129.410156 314.769531 131.949219 C 312.796875 134.625 312.082031 138.121094 312.753906 141.78125 L 340.496094 292.683594 C 341.992188 300.816406 349.820312 307.433594 357.949219 307.433594 L 449.835938 307.433594 C 453.667969 307.433594 457.007812 305.960938 459.230469 303.289062 C 461.515625 300.546875 462.375 296.871094 461.652344 292.9375 L 433.910156 142.039062 C 432.414062 133.90625 424.585938 127.289062 416.457031 127.289062 Z M 449.835938 308.851562 L 357.949219 308.851562 C 349.167969 308.851562 340.714844 301.710938 339.101562 292.9375 L 311.359375 142.039062 C 310.613281 137.988281 311.417969 134.105469 313.625 131.105469 C 315.734375 128.25 318.957031 126.425781 322.703125 125.976562 C 323.292969 125.910156 400.902344 125.875 416.457031 125.867188 C 425.234375 125.867188 433.691406 133.007812 435.304688 141.78125 L 463.042969 292.683594 C 463.84375 297.035156 462.878906 301.125 460.320312 304.195312 C 457.820312 307.199219 454.097656 308.851562 449.835938 308.851562 " fill-opacity="1" fill-rule="nonzero"/><path fill="#5479f7" d="M 328.4375 231.726562 C 328.101562 231.726562 327.804688 231.488281 327.742188 231.148438 L 311.359375 142.039062 C 310.613281 137.988281 311.417969 134.105469 313.625 131.105469 C 315.734375 128.25 318.957031 126.425781 322.703125 125.976562 C 323.292969 125.910156 400.902344 125.875 416.457031 125.867188 C 425.234375 125.867188 433.691406 133.007812 435.304688 141.78125 L 440.734375 171.328125 C 440.804688 171.714844 440.550781 172.085938 440.167969 172.152344 C 439.78125 172.226562 439.410156 171.96875 439.339844 171.585938 L 433.910156 142.039062 C 432.414062 133.90625 424.585938 127.289062 416.457031 127.289062 C 415.535156 127.289062 324.238281 127.320312 322.835938 127.390625 C 319.519531 127.785156 316.640625 129.410156 314.769531 131.949219 C 312.796875 134.628906 312.082031 138.121094 312.753906 141.78125 L 329.136719 230.890625 C 329.207031 231.273438 328.953125 231.648438 328.566406 231.714844 C 328.523438 231.722656 328.480469 231.726562 328.4375 231.726562 " fill-opacity="1" fill-rule="nonzero"/><path fill="#ffffff" d="M 408.929688 308.851562 L 371.910156 308.851562 C 371.515625 308.851562 371.199219 308.535156 371.199219 308.144531 C 371.199219 307.753906 371.515625 307.4375 371.910156 307.4375 L 408.929688 307.4375 C 409.320312 307.4375 409.636719 307.753906 409.636719 308.144531 C 409.636719 308.535156 409.320312 308.851562 408.929688 308.851562 " fill-opacity="1" fill-rule="nonzero"/><path fill="#99b9ff" d="M 402.894531 226.015625 L 377.695312 226.015625 C 376.023438 226.015625 374.414062 224.660156 374.105469 222.980469 C 373.796875 221.308594 374.90625 219.949219 376.582031 219.949219 L 401.78125 219.949219 C 403.457031 219.949219 405.066406 221.308594 405.371094 222.980469 C 405.679688 224.660156 404.570312 226.015625 402.894531 226.015625 " fill-opacity="1" fill-rule="nonzero"/><path fill="#99b9ff" d="M 436.191406 242.660156 L 350.519531 242.660156 C 348.84375 242.660156 347.238281 241.300781 346.929688 239.625 C 346.621094 237.949219 347.730469 236.589844 349.40625 236.589844 L 435.078125 236.589844 C 436.75 236.589844 438.359375 237.949219 438.667969 239.625 C 438.976562 241.300781 437.867188 242.660156 436.191406 242.660156 " fill-opacity="1" fill-rule="nonzero"/><path fill="#99b9ff" d="M 438.339844 254.339844 L 352.667969 254.339844 C 350.992188 254.339844 349.386719 252.980469 349.078125 251.304688 C 348.769531 249.628906 349.878906 248.269531 351.550781 248.269531 L 437.222656 248.269531 C 438.898438 248.269531 440.507812 249.628906 440.816406 251.304688 C 441.125 252.980469 440.015625 254.339844 438.339844 254.339844 " fill-opacity="1" fill-rule="nonzero"/><path fill="#99b9ff" d="M 361.707031 193.320312 C 367.84375 198.261719 375.449219 201.292969 383.210938 201.292969 C 390.96875 201.292969 397.457031 198.261719 401.78125 193.320312 C 395.386719 191.445312 388.394531 190.394531 381.207031 190.394531 C 374.015625 190.394531 367.414062 191.445312 361.707031 193.320312 " fill-opacity="1" fill-rule="nonzero"/><path fill="#99b9ff" d="M 388.132812 173.578125 L 389.183594 164.386719 C 389.582031 160.910156 387.507812 157.167969 384.097656 155.203125 C 382.625 154.351562 381.007812 153.902344 379.441406 153.902344 L 370.226562 153.902344 C 368.167969 153.902344 366.332031 154.679688 365.078125 156.082031 L 364.660156 156.546875 C 362.675781 158.773438 362.472656 162.210938 364.144531 165.289062 L 368.722656 173.699219 L 388.132812 173.578125 " fill-opacity="1" fill-rule="nonzero"/><path fill="#ffffff" d="M 375.9375 158.21875 L 365.734375 158.21875 L 368.515625 173.339844 C 369.089844 176.464844 370.925781 179.246094 373.902344 181.046875 L 375.433594 189.375 C 376.039062 192.664062 379.195312 195.332031 382.484375 195.332031 C 385.777344 195.332031 387.953125 192.664062 387.347656 189.375 L 385.859375 181.273438 C 387.734375 179.484375 388.96875 176.59375 388.371094 173.339844 L 387.304688 167.542969 C 386.339844 162.292969 381.1875 158.21875 375.9375 158.21875 " fill-opacity="1" fill-rule="nonzero"/><path fill="#caddff" d="M 382.289062 196.042969 C 378.675781 196.042969 375.199219 193.105469 374.535156 189.5 L 373.019531 181.25 C 372.949219 180.867188 373.203125 180.496094 373.589844 180.425781 C 373.976562 180.355469 374.34375 180.609375 374.414062 180.996094 L 375.929688 189.246094 C 376.476562 192.210938 379.328125 194.621094 382.289062 194.621094 C 383.648438 194.621094 384.824219 194.105469 385.605469 193.164062 C 386.410156 192.199219 386.710938 190.898438 386.453125 189.5 L 385 181.59375 C 384.929688 181.207031 385.183594 180.839844 385.570312 180.769531 C 385.957031 180.695312 386.324219 180.949219 386.394531 181.335938 L 387.847656 189.246094 C 388.183594 191.066406 387.773438 192.78125 386.695312 194.074219 C 385.640625 195.34375 384.074219 196.042969 382.289062 196.042969 " fill-opacity="1" fill-rule="nonzero"/><path fill="#99b9ff" d="M 380.199219 183.886719 C 379.804688 183.886719 379.488281 183.570312 379.488281 183.179688 C 379.488281 182.785156 379.804688 182.46875 380.199219 182.46875 C 382.582031 182.46875 384.652344 181.558594 386.03125 179.898438 C 387.445312 178.199219 387.980469 175.917969 387.527344 173.46875 L 386.464844 167.671875 C 385.558594 162.746094 380.820312 158.742188 375.90625 158.742188 L 366.589844 158.742188 L 369.25 173.210938 C 369.914062 176.832031 372.65625 180.140625 376.238281 181.644531 C 376.601562 181.792969 376.769531 182.210938 376.617188 182.574219 C 376.464844 182.933594 376.050781 183.101562 375.691406 182.953125 C 371.679688 181.265625 368.605469 177.542969 367.855469 173.46875 L 365.039062 158.164062 C 365.003906 157.953125 365.058594 157.742188 365.195312 157.582031 C 365.328125 157.417969 365.527344 157.324219 365.738281 157.324219 L 375.90625 157.324219 C 381.472656 157.324219 386.835938 161.851562 387.859375 167.414062 L 388.921875 173.210938 C 389.449219 176.078125 388.808594 178.777344 387.121094 180.808594 C 385.46875 182.792969 383.007812 183.886719 380.199219 183.886719 " fill-opacity="1" fill-rule="nonzero"/><path fill="#99b9ff" d="M 381.925781 157.667969 L 367.933594 167.992188 L 366.101562 158.03125 C 366.101562 158.03125 381.972656 157.910156 381.925781 157.667969 " fill-opacity="1" fill-rule="nonzero"/><path fill="#caddff" d="M 383.179688 201.976562 C 375.773438 201.976562 368.117188 199.238281 361.652344 194.179688 C 347.464844 183.082031 343.160156 164.132812 352.0625 151.933594 C 360.554688 140.285156 378.214844 138.839844 392.261719 148.640625 C 392.582031 148.863281 392.660156 149.304688 392.4375 149.628906 C 392.214844 149.949219 391.769531 150.027344 391.449219 149.804688 C 378.039062 140.445312 361.242188 141.75 353.207031 152.765625 C 344.753906 164.355469 348.933594 182.433594 362.527344 193.0625 C 369.863281 198.804688 378.785156 201.445312 386.996094 200.296875 C 393.390625 199.40625 398.875 196.222656 402.441406 191.335938 C 406.859375 185.28125 407.992188 177.117188 405.554688 168.929688 C 405.445312 168.554688 405.65625 168.160156 406.03125 168.050781 C 406.40625 167.9375 406.800781 168.152344 406.914062 168.527344 C 409.480469 177.136719 408.265625 185.757812 403.585938 192.171875 C 399.792969 197.371094 393.96875 200.757812 387.191406 201.703125 C 385.867188 201.886719 384.527344 201.976562 383.179688 201.976562 " fill-opacity="1" fill-rule="nonzero"/><path fill="#ffffff" d="M 464.671875 460.980469 C 466.265625 469.660156 461.378906 476.695312 453.75 476.695312 L 371.003906 476.695312 C 363.375 476.695312 355.902344 469.660156 354.304688 460.980469 L 324.75 300.199219 C 323.152344 291.523438 328.042969 284.488281 335.667969 284.488281 L 418.417969 284.488281 C 426.042969 284.488281 433.519531 291.523438 435.113281 300.199219 L 464.671875 460.980469 " fill-opacity="1" fill-rule="nonzero"/><path fill="#000000" d="M 453.75 477.402344 L 371.003906 477.402344 C 363.0625 477.402344 355.261719 470.09375 353.609375 461.109375 L 324.050781 300.328125 C 323.171875 295.554688 324.175781 291.007812 326.800781 287.855469 C 328.988281 285.226562 332.136719 283.78125 335.667969 283.78125 L 418.417969 283.78125 C 426.355469 283.78125 434.160156 291.089844 435.808594 300.074219 L 451.910156 387.644531 C 451.980469 388.03125 451.726562 388.402344 451.339844 388.472656 C 450.953125 388.542969 450.585938 388.289062 450.515625 387.902344 L 434.414062 300.328125 C 432.882812 291.988281 425.707031 285.199219 418.417969 285.199219 L 335.667969 285.199219 C 332.566406 285.199219 329.804688 286.464844 327.890625 288.765625 C 325.535156 291.589844 324.644531 295.714844 325.445312 300.074219 L 355.003906 460.851562 C 356.539062 469.195312 363.714844 475.984375 371.003906 475.984375 L 453.75 475.984375 C 456.855469 475.984375 459.613281 474.71875 461.53125 472.417969 C 463.886719 469.59375 464.777344 465.46875 463.972656 461.109375 L 454.203125 407.964844 C 454.132812 407.578125 454.386719 407.210938 454.773438 407.140625 C 455.160156 407.066406 455.527344 407.324219 455.597656 407.707031 L 465.367188 460.851562 C 466.246094 465.625 465.246094 470.175781 462.621094 473.324219 C 460.429688 475.957031 457.28125 477.402344 453.75 477.402344 " fill-opacity="1" fill-rule="nonzero"/><path fill="#99b9ff" d="M 404.074219 373.644531 L 381.332031 373.644531 C 379.820312 373.644531 378.367188 372.421875 378.089844 370.90625 C 377.8125 369.398438 378.8125 368.167969 380.324219 368.167969 L 403.066406 368.167969 C 404.578125 368.167969 406.027344 369.398438 406.308594 370.90625 C 406.585938 372.421875 405.585938 373.644531 404.074219 373.644531 " fill-opacity="1" fill-rule="nonzero"/><path fill="#caddff" d="M 434.3125 389.714844 L 356.996094 389.714844 C 355.484375 389.714844 354.035156 388.488281 353.757812 386.976562 C 353.480469 385.464844 354.480469 384.238281 355.992188 384.238281 L 433.308594 384.238281 C 434.820312 384.238281 436.269531 385.464844 436.546875 386.976562 C 436.828125 388.488281 435.828125 389.714844 434.3125 389.714844 " fill-opacity="1" fill-rule="nonzero"/><path fill="#caddff" d="M 436.507812 401.652344 L 359.191406 401.652344 C 357.679688 401.652344 356.230469 400.425781 355.953125 398.914062 C 355.671875 397.402344 356.671875 396.175781 358.183594 396.175781 L 435.503906 396.175781 C 437.015625 396.175781 438.464844 397.402344 438.742188 398.914062 C 439.019531 400.425781 438.019531 401.652344 436.507812 401.652344 " fill-opacity="1" fill-rule="nonzero"/><path fill="#caddff" d="M 429.820312 437.660156 L 365.613281 437.660156 C 364.101562 437.660156 362.648438 436.433594 362.371094 434.921875 C 362.09375 433.410156 363.09375 432.183594 364.605469 432.183594 L 428.816406 432.183594 C 430.328125 432.183594 431.777344 433.410156 432.054688 434.921875 C 432.332031 436.433594 431.332031 437.660156 429.820312 437.660156 " fill-opacity="1" fill-rule="nonzero"/><path fill="#caddff" d="M 445.125 449.597656 L 367.808594 449.597656 C 366.296875 449.597656 364.84375 448.371094 364.566406 446.859375 C 364.289062 445.347656 365.289062 444.121094 366.800781 444.121094 L 444.117188 444.121094 C 445.628906 444.121094 447.082031 445.347656 447.359375 446.859375 C 447.636719 448.371094 446.636719 449.597656 445.125 449.597656 " fill-opacity="1" fill-rule="nonzero"/><path fill="#caddff" d="M 417.328125 460.605469 L 369.832031 460.605469 C 368.320312 460.605469 366.867188 459.378906 366.589844 457.867188 C 366.3125 456.355469 367.3125 455.128906 368.824219 455.128906 L 416.324219 455.128906 C 417.835938 455.128906 419.285156 456.355469 419.5625 457.867188 C 419.839844 459.378906 418.839844 460.605469 417.328125 460.605469 " fill-opacity="1" fill-rule="nonzero"/><path fill="#caddff" d="M 413.140625 413.589844 L 361.386719 413.589844 C 359.875 413.589844 358.425781 412.363281 358.144531 410.851562 C 357.867188 409.339844 358.867188 408.113281 360.378906 408.113281 L 412.132812 408.113281 C 413.644531 408.113281 415.097656 409.339844 415.375 410.851562 C 415.652344 412.363281 414.652344 413.589844 413.140625 413.589844 " fill-opacity="1" fill-rule="nonzero"/><path fill="#caddff" d="M 440.898438 425.523438 L 363.582031 425.523438 C 362.070312 425.523438 360.617188 424.300781 360.339844 422.789062 C 360.0625 421.277344 361.0625 420.050781 362.574219 420.050781 L 439.890625 420.050781 C 441.402344 420.050781 442.855469 421.277344 443.132812 422.789062 C 443.410156 424.300781 442.410156 425.523438 440.898438 425.523438 " fill-opacity="1" fill-rule="nonzero"/><path fill="#000000" d="M 377.234375 339.179688 C 371.992188 339.179688 367.1875 334.269531 367.519531 329.179688 C 368.058594 320.820312 370.640625 310.019531 380.171875 308.492188 C 390.105469 306.90625 397.921875 319.378906 402.371094 328.902344 C 404.78125 334.0625 401.816406 339.179688 396.457031 339.179688 L 377.234375 339.179688 " fill-opacity="1" fill-rule="nonzero"/><path fill="#5479f7" d="M 388.460938 355.671875 C 395.992188 355.488281 400.757812 353.855469 405.261719 348.710938 C 398.597656 346.757812 395.464844 346.671875 387.976562 346.671875 C 380.484375 346.671875 376.003906 347.046875 370.058594 349 C 370.058594 349 378.484375 355.914062 388.460938 355.671875 " fill-opacity="1" fill-rule="nonzero"/><path fill="#000000" d="M 369.925781 349.742188 C 369.617188 349.742188 369.332031 349.535156 369.246094 349.222656 C 369.140625 348.847656 369.359375 348.457031 369.734375 348.347656 C 375.371094 346.765625 381.507812 345.960938 387.976562 345.960938 C 393.796875 345.960938 399.609375 346.617188 405.25 347.90625 C 405.628906 347.992188 405.867188 348.371094 405.78125 348.757812 C 405.695312 349.136719 405.316406 349.375 404.933594 349.289062 C 399.394531 348.023438 393.6875 347.382812 387.976562 347.382812 C 381.636719 347.382812 375.628906 348.164062 370.117188 349.714844 C 370.054688 349.730469 369.992188 349.742188 369.925781 349.742188 " fill-opacity="1" fill-rule="nonzero"/><path fill="#ffffff" d="M 389.128906 351.972656 C 386.476562 351.972656 383.929688 349.820312 383.441406 347.167969 L 378.152344 318.402344 L 387.761719 318.402344 L 393.050781 347.167969 C 393.539062 349.820312 391.785156 351.972656 389.128906 351.972656 " fill-opacity="1" fill-rule="nonzero"/><path fill="#000000" d="M 379.003906 319.109375 L 384.140625 347.039062 C 384.566406 349.367188 386.804688 351.261719 389.128906 351.261719 C 390.183594 351.261719 391.097656 350.863281 391.699219 350.136719 C 392.320312 349.394531 392.554688 348.382812 392.355469 347.292969 L 387.171875 319.109375 Z M 389.128906 352.679688 C 386.15625 352.679688 383.289062 350.265625 382.746094 347.292969 L 377.457031 318.527344 C 377.417969 318.320312 377.476562 318.109375 377.609375 317.949219 C 377.742188 317.785156 377.941406 317.691406 378.152344 317.691406 L 387.761719 317.691406 C 388.105469 317.691406 388.398438 317.9375 388.460938 318.273438 L 393.746094 347.039062 C 394.023438 348.546875 393.683594 349.972656 392.789062 351.046875 C 391.910156 352.097656 390.613281 352.679688 389.128906 352.679688 " fill-opacity="1" fill-rule="nonzero"/><path fill="#ffffff" d="M 382.339844 334.5625 C 378.941406 333.019531 376.148438 329.609375 375.421875 325.648438 L 374.480469 320.539062 C 373.453125 314.953125 376.792969 310.425781 381.933594 310.425781 C 386.742188 310.425781 391.421875 314.660156 392.382812 319.886719 L 393.441406 325.648438 C 394.433594 331.054688 391.207031 335.433594 386.230469 335.433594 L 382.339844 334.5625 " fill-opacity="1" fill-rule="nonzero"/><path fill="#000000" d="M 386.230469 336.144531 C 385.839844 336.144531 385.519531 335.828125 385.519531 335.433594 C 385.519531 335.042969 385.839844 334.726562 386.230469 334.726562 C 388.257812 334.726562 390.046875 333.917969 391.265625 332.449219 C 392.675781 330.761719 393.214844 328.328125 392.746094 325.777344 L 391.683594 320.015625 C 390.785156 315.117188 386.410156 311.136719 381.933594 311.136719 C 379.832031 311.136719 377.976562 311.972656 376.710938 313.496094 C 375.25 315.246094 374.691406 317.769531 375.179688 320.410156 L 376.117188 325.523438 C 376.78125 329.128906 379.335938 332.421875 382.632812 333.914062 C 382.988281 334.078125 383.148438 334.496094 382.984375 334.851562 C 382.824219 335.210938 382.40625 335.367188 382.046875 335.207031 C 378.34375 333.527344 375.46875 329.824219 374.722656 325.777344 L 373.785156 320.667969 C 373.222656 317.609375 373.890625 314.664062 375.621094 312.589844 C 377.164062 310.738281 379.40625 309.71875 381.933594 309.71875 C 387.0625 309.71875 392.0625 314.222656 393.078125 319.757812 L 394.140625 325.523438 C 394.683594 328.488281 394.035156 331.34375 392.355469 333.359375 C 390.859375 335.152344 388.683594 336.144531 386.230469 336.144531 " fill-opacity="1" fill-rule="nonzero"/><path fill="#000000" d="M 373.910156 317.796875 L 392.632812 317.796875 C 392.632812 317.796875 391.578125 314.101562 387.773438 311.625 C 384.535156 309.523438 380.695312 309.320312 377.730469 310.773438 C 375.722656 311.757812 373.78125 313.527344 373.945312 316.683594 L 373.910156 317.796875 " fill-opacity="1" fill-rule="nonzero"/><path fill="#000000" d="M 384.890625 329.871094 C 383.722656 329.871094 382.640625 329.402344 381.84375 328.550781 C 381.578125 328.265625 381.589844 327.816406 381.875 327.546875 C 382.160156 327.28125 382.609375 327.292969 382.878906 327.578125 C 383.40625 328.144531 384.121094 328.453125 384.890625 328.453125 C 385.664062 328.453125 386.378906 328.144531 386.90625 327.578125 C 387.171875 327.292969 387.621094 327.28125 387.90625 327.550781 C 388.191406 327.816406 388.207031 328.265625 387.941406 328.550781 C 387.140625 329.402344 386.058594 329.871094 384.890625 329.871094 " fill-opacity="1" fill-rule="nonzero"/><path fill="#000000" d="M 388.613281 356.296875 C 380.484375 356.296875 371.792969 352.722656 365.152344 345.867188 C 358.949219 339.46875 355.527344 331.21875 355.761719 323.234375 C 355.941406 316.9375 358.4375 311.269531 362.785156 307.277344 C 372.996094 297.90625 390.664062 299.941406 402.175781 311.820312 C 405.996094 315.765625 408.8125 320.46875 410.320312 325.429688 C 410.433594 325.804688 410.222656 326.199219 409.847656 326.316406 C 409.476562 326.425781 409.078125 326.214844 408.964844 325.839844 C 407.523438 321.097656 404.824219 316.589844 401.15625 312.804688 C 390.175781 301.476562 373.390625 299.460938 363.746094 308.320312 C 359.679688 312.050781 357.347656 317.363281 357.175781 323.273438 C 356.953125 330.878906 360.234375 338.753906 366.167969 344.878906 C 377.152344 356.210938 393.933594 358.222656 403.582031 349.367188 C 407.726562 345.558594 410.0625 340.128906 410.15625 334.078125 C 410.164062 333.691406 410.480469 333.382812 410.867188 333.382812 C 410.871094 333.382812 410.875 333.382812 410.878906 333.382812 C 411.269531 333.386719 411.582031 333.710938 411.574219 334.101562 C 411.476562 340.546875 408.976562 346.335938 404.539062 350.410156 C 400.222656 354.375 394.570312 356.296875 388.613281 356.296875 " fill-opacity="1" fill-rule="nonzero"/><path fill="#5479f7" d="M 520.726562 393.964844 C 520.726562 395.617188 519.386719 396.957031 517.734375 396.957031 C 516.078125 396.957031 514.742188 395.617188 514.742188 393.964844 C 514.742188 392.3125 516.078125 390.972656 517.734375 390.972656 C 519.386719 390.972656 520.726562 392.3125 520.726562 393.964844 " fill-opacity="1" fill-rule="nonzero"/><path fill="#5479f7" d="M 532.066406 393.964844 C 532.066406 395.617188 530.726562 396.957031 529.074219 396.957031 C 527.421875 396.957031 526.082031 395.617188 526.082031 393.964844 C 526.082031 392.3125 527.421875 390.972656 529.074219 390.972656 C 530.726562 390.972656 532.066406 392.3125 532.066406 393.964844 " fill-opacity="1" fill-rule="nonzero"/><path fill="#5479f7" d="M 543.40625 393.964844 C 543.40625 395.617188 542.066406 396.957031 540.414062 396.957031 C 538.761719 396.957031 537.421875 395.617188 537.421875 393.964844 C 537.421875 392.3125 538.761719 390.972656 540.414062 390.972656 C 542.066406 390.972656 543.40625 392.3125 543.40625 393.964844 " fill-opacity="1" fill-rule="nonzero"/><path fill="#5479f7" d="M 554.75 393.964844 C 554.75 395.617188 553.410156 396.957031 551.757812 396.957031 C 550.101562 396.957031 548.765625 395.617188 548.765625 393.964844 C 548.765625 392.3125 550.101562 390.972656 551.757812 390.972656 C 553.410156 390.972656 554.75 392.3125 554.75 393.964844 " fill-opacity="1" fill-rule="nonzero"/><path fill="#5479f7" d="M 526.394531 419.0625 C 526.394531 420.71875 525.054688 422.058594 523.402344 422.058594 C 521.75 422.058594 520.410156 420.71875 520.410156 419.0625 C 520.410156 417.410156 521.75 416.070312 523.402344 416.070312 C 525.054688 416.070312 526.394531 417.410156 526.394531 419.0625 " fill-opacity="1" fill-rule="nonzero"/><path fill="#5479f7" d="M 537.738281 419.0625 C 537.738281 420.71875 536.398438 422.058594 534.746094 422.058594 C 533.09375 422.058594 531.753906 420.71875 531.753906 419.0625 C 531.753906 417.410156 533.09375 416.070312 534.746094 416.070312 C 536.398438 416.070312 537.738281 417.410156 537.738281 419.0625 " fill-opacity="1" fill-rule="nonzero"/><path fill="#5479f7" d="M 549.078125 419.0625 C 549.078125 420.71875 547.738281 422.058594 546.085938 422.058594 C 544.433594 422.058594 543.09375 420.71875 543.09375 419.0625 C 543.09375 417.410156 544.433594 416.070312 546.085938 416.070312 C 547.738281 416.070312 549.078125 417.410156 549.078125 419.0625 " fill-opacity="1" fill-rule="nonzero"/><path fill="#5479f7" d="M 560.421875 419.0625 C 560.421875 420.71875 559.082031 422.058594 557.429688 422.058594 C 555.773438 422.058594 554.433594 420.71875 554.433594 419.0625 C 554.433594 417.410156 555.773438 416.070312 557.429688 416.070312 C 559.082031 416.070312 560.421875 417.410156 560.421875 419.0625 " fill-opacity="1" fill-rule="nonzero"/><path fill="#000000" d="M 569.183594 157.238281 L 546.394531 157.238281 C 541.726562 157.238281 538.460938 152.625 540.011719 148.222656 L 545.542969 132.527344 L 574.179688 136.917969 L 574.179688 152.238281 C 574.179688 155 571.941406 157.238281 569.183594 157.238281 " fill-opacity="1" fill-rule="nonzero"/><path fill="#000000" d="M 574.179688 136.917969 C 574.179688 145.011719 567.617188 151.570312 559.527344 151.570312 C 551.433594 151.570312 544.871094 145.011719 544.871094 136.917969 C 544.871094 128.824219 551.433594 122.261719 559.527344 122.261719 C 567.617188 122.261719 574.179688 128.824219 574.179688 136.917969 " fill-opacity="1" fill-rule="nonzero"/><path fill="#ffffff" d="M 620.011719 254.726562 L 617.386719 274.84375 L 627.476562 282.515625 L 632.875 260.9375 L 620.011719 254.726562 " fill-opacity="1" fill-rule="nonzero"/><path fill="#000000" d="M 618.140625 274.53125 L 627.046875 281.304688 L 632.046875 261.328125 L 620.585938 255.792969 Z M 627.472656 283.226562 C 627.316406 283.226562 627.167969 283.175781 627.042969 283.082031 L 616.953125 275.414062 C 616.753906 275.257812 616.648438 275.007812 616.679688 274.753906 L 619.308594 254.636719 C 619.335938 254.410156 619.472656 254.210938 619.671875 254.105469 C 619.871094 253.996094 620.113281 253.988281 620.316406 254.089844 L 633.183594 260.300781 C 633.484375 260.445312 633.640625 260.78125 633.5625 261.109375 L 628.160156 282.691406 C 628.105469 282.921875 627.933594 283.109375 627.707031 283.1875 C 627.632812 283.214844 627.550781 283.226562 627.472656 283.226562 " fill-opacity="1" fill-rule="nonzero"/><path fill="#000000" d="M 570.277344 241.40625 C 570.277344 241.40625 616.632812 181.554688 633.980469 188.941406 C 651.332031 196.324219 644.3125 245.085938 633.613281 264.28125 L 617.917969 260.199219 L 617.917969 250.742188 L 607.976562 268.332031 L 570.277344 241.40625 " fill-opacity="1" fill-rule="nonzero"/><path fill="#5479f7" d="M 632.839844 267.878906 C 638.804688 272.039062 653.210938 282.46875 659.507812 291.308594 C 661.042969 293.460938 659.695312 296.480469 657.058594 296.746094 C 647.632812 297.699219 628.53125 296.296875 615.089844 285.019531 C 615.089844 285.019531 615.273438 280.703125 618.015625 273.011719 L 625.164062 275.957031 L 624.621094 274.871094 C 623.808594 273.242188 624.214844 271.265625 625.601562 270.085938 L 627.921875 268.113281 C 629.320312 266.925781 631.335938 266.828125 632.839844 267.878906 " fill-opacity="1" fill-rule="nonzero"/><path fill="#ffffff" d="M 648.8125 293.609375 C 632.171875 293.609375 617.175781 284.058594 617 283.945312 C 616.671875 283.734375 616.582031 283.296875 616.789062 282.96875 C 617.003906 282.636719 617.441406 282.542969 617.773438 282.753906 C 617.96875 282.882812 637.558594 295.347656 656.46875 291.433594 C 656.847656 291.355469 657.226562 291.597656 657.304688 291.984375 C 657.382812 292.367188 657.136719 292.742188 656.753906 292.820312 C 654.101562 293.371094 651.4375 293.609375 648.8125 293.609375 " fill-opacity="1" fill-rule="nonzero"/><path fill="#ffffff" d="M 636.316406 279.964844 C 636.144531 279.964844 635.976562 279.90625 635.839844 279.78125 C 635.546875 279.515625 635.523438 279.070312 635.789062 278.78125 L 640.585938 273.449219 C 640.847656 273.160156 641.296875 273.136719 641.589844 273.398438 C 641.878906 273.660156 641.902344 274.109375 641.640625 274.398438 L 636.839844 279.726562 C 636.703125 279.882812 636.507812 279.964844 636.316406 279.964844 " fill-opacity="1" fill-rule="nonzero"/><path fill="#ffffff" d="M 640.871094 283.226562 C 640.683594 283.226562 640.496094 283.15625 640.359375 283.003906 C 640.085938 282.722656 640.101562 282.277344 640.386719 282.003906 L 645.433594 277.222656 C 645.71875 276.949219 646.164062 276.964844 646.433594 277.246094 C 646.703125 277.53125 646.691406 277.984375 646.40625 278.246094 L 641.359375 283.035156 C 641.222656 283.164062 641.046875 283.226562 640.871094 283.226562 " fill-opacity="1" fill-rule="nonzero"/><path fill="#ffffff" d="M 655.519531 366.28125 C 655.519531 366.785156 666.550781 390.855469 666.550781 390.855469 L 654.015625 391.859375 L 645.488281 371.296875 L 655.519531 366.28125 " fill-opacity="1" fill-rule="nonzero"/><path fill="#000000" d="M 656.226562 366.277344 Z M 656.226562 366.28125 Z M 646.398438 371.636719 L 654.46875 391.113281 L 665.480469 390.230469 C 658.1875 374.300781 655.875 369.050781 655.148438 367.257812 Z M 654.011719 392.566406 C 653.726562 392.566406 653.46875 392.394531 653.359375 392.128906 L 644.832031 371.570312 C 644.691406 371.226562 644.839844 370.828125 645.171875 370.664062 L 655.199219 365.648438 C 655.421875 365.539062 655.679688 365.550781 655.890625 365.679688 C 656.0625 365.785156 656.179688 365.957031 656.214844 366.152344 C 656.554688 367.222656 662.949219 381.296875 667.195312 390.558594 C 667.289062 390.769531 667.277344 391.015625 667.160156 391.214844 C 667.042969 391.414062 666.835938 391.542969 666.605469 391.5625 L 654.070312 392.566406 C 654.050781 392.566406 654.03125 392.566406 654.011719 392.566406 " fill-opacity="1" fill-rule="nonzero"/><path fill="#5479f7" d="M 655.019531 385.839844 C 655.019531 385.839844 657.523438 379.820312 664.042969 382.832031 C 664.042969 382.832031 676.007812 400.117188 680.453125 414.390625 C 681.714844 418.425781 677.570312 422.066406 673.714844 420.328125 C 664.699219 416.253906 650.5625 407.707031 642.480469 391.859375 C 642.480469 391.859375 644.988281 385.339844 649 382.328125 L 655.019531 385.839844 " fill-opacity="1" fill-rule="nonzero"/><path fill="#ffffff" d="M 676.785156 416.683594 C 673.410156 416.683594 661.035156 415 644.914062 392.777344 C 644.6875 392.460938 644.757812 392.015625 645.074219 391.785156 C 645.386719 391.558594 645.832031 391.628906 646.0625 391.945312 C 664.074219 416.773438 677.34375 415.246094 677.480469 415.230469 C 677.867188 415.175781 678.222656 415.445312 678.28125 415.832031 C 678.335938 416.214844 678.070312 416.574219 677.683594 416.632812 C 677.609375 416.644531 677.300781 416.683594 676.785156 416.683594 " fill-opacity="1" fill-rule="nonzero"/><path fill="#ffffff" d="M 666.550781 403.097656 C 666.308594 403.097656 666.066406 402.972656 665.933594 402.746094 C 665.738281 402.410156 665.851562 401.976562 666.191406 401.777344 L 672.210938 398.265625 C 672.546875 398.070312 672.980469 398.183594 673.179688 398.523438 C 673.375 398.859375 673.261719 399.292969 672.921875 399.492188 L 666.902344 403.003906 C 666.792969 403.066406 666.671875 403.097656 666.550781 403.097656 " fill-opacity="1" fill-rule="nonzero"/><path fill="#ffffff" d="M 663.542969 398.585938 C 663.289062 398.585938 663.042969 398.449219 662.914062 398.214844 C 662.730469 397.867188 662.859375 397.4375 663.203125 397.25 L 669.722656 393.742188 C 670.070312 393.558594 670.5 393.683594 670.683594 394.027344 C 670.871094 394.375 670.742188 394.804688 670.394531 394.992188 L 663.875 398.5 C 663.769531 398.558594 663.65625 398.585938 663.542969 398.585938 " fill-opacity="1" fill-rule="nonzero"/><path fill="#000000" d="M 659.527344 370.796875 L 642.480469 375.808594 C 642.480469 375.808594 611.390625 310.113281 602.363281 300.585938 C 593.339844 291.058594 575.789062 275.511719 557.238281 269.996094 C 538.683594 264.476562 538.683594 250.433594 538.683594 250.433594 L 579.164062 235.96875 C 579.164062 235.96875 614.398438 260.464844 628.941406 282.03125 C 643.484375 303.59375 659.527344 370.796875 659.527344 370.796875 " fill-opacity="1" fill-rule="nonzero"/><path fill="#ffffff" d="M 614.589844 266.015625 C 614.410156 266.015625 614.222656 265.941406 614.082031 265.800781 C 609.386719 260.960938 595.484375 249.277344 595.34375 249.160156 C 595.042969 248.90625 595.003906 248.464844 595.257812 248.160156 C 595.507812 247.863281 595.957031 247.824219 596.253906 248.074219 C 596.398438 248.191406 610.355469 259.921875 615.101562 264.808594 C 615.371094 265.09375 615.367188 265.539062 615.085938 265.8125 C 614.949219 265.945312 614.769531 266.015625 614.589844 266.015625 " fill-opacity="1" fill-rule="nonzero"/><path fill="#5479f7" d="M 568.199219 162.140625 C 568.199219 162.140625 583.226562 164.316406 592.546875 175.207031 C 601.863281 186.097656 616.03125 207.429688 616.390625 223.207031 C 616.753906 238.984375 596.75 233.101562 588.503906 221.65625 C 580.257812 210.214844 568.199219 162.140625 568.199219 162.140625 " fill-opacity="1" fill-rule="nonzero"/><path fill="#5479f7" d="M 536.117188 165.054688 C 536.117188 165.054688 557.984375 156.5 581.964844 166.683594 L 595.089844 232.308594 C 561.371094 248.613281 552.597656 291.695312 538.058594 256.960938 C 533.386719 245.796875 533.371094 232.734375 533.386719 230.472656 L 536.117188 165.054688 " fill-opacity="1" fill-rule="nonzero"/><path fill="#ffffff" d="M 614.265625 193.742188 C 614.265625 193.742188 617.875 220.21875 616.335938 224.960938 C 614.796875 229.703125 612.644531 235.429688 606.828125 230.292969 C 601.007812 225.15625 607.667969 199.59375 607.667969 199.59375 L 614.265625 193.742188 " fill-opacity="1" fill-rule="nonzero"/><path fill="#000000" d="M 608.300781 199.976562 C 606.464844 207.132812 602.835938 225.820312 607.296875 229.761719 C 608.972656 231.238281 610.390625 231.832031 611.519531 231.523438 C 613.492188 230.984375 614.695312 227.738281 615.664062 224.742188 C 616.785156 221.28125 614.988281 204.589844 613.742188 195.15625 Z M 610.894531 233.023438 C 609.523438 233.023438 608.027344 232.296875 606.359375 230.820312 C 600.28125 225.457031 606.707031 200.472656 606.984375 199.410156 C 607.019531 199.273438 607.097656 199.152344 607.199219 199.058594 L 613.796875 193.210938 C 613.992188 193.035156 614.269531 192.984375 614.511719 193.078125 C 614.757812 193.167969 614.933594 193.386719 614.96875 193.644531 C 615.117188 194.734375 618.582031 220.339844 617.015625 225.179688 C 615.875 228.679688 614.546875 232.164062 611.890625 232.886719 C 611.566406 232.976562 611.234375 233.023438 610.894531 233.023438 " fill-opacity="1" fill-rule="nonzero"/><path fill="#ffffff" d="M 599.882812 209.109375 L 598.511719 208.304688 L 614.410156 179.238281 L 625.824219 179.0625 L 627.195312 179.871094 L 599.882812 209.109375 " fill-opacity="1" fill-rule="nonzero"/><path fill="#000000" d="M 611.296875 208.933594 L 599.882812 209.109375 L 615.78125 180.046875 L 627.195312 179.871094 L 611.296875 208.933594 " fill-opacity="1" fill-rule="nonzero"/><path fill="#000000" d="M 589.523438 213.886719 C 589.191406 213.886719 588.902344 213.660156 588.828125 213.324219 L 582.359375 182.445312 C 582.277344 182.0625 582.519531 181.683594 582.90625 181.605469 C 583.285156 181.527344 583.664062 181.769531 583.742188 182.152344 L 590.21875 213.03125 C 590.300781 213.417969 590.050781 213.792969 589.667969 213.875 C 589.617188 213.882812 589.570312 213.886719 589.523438 213.886719 " fill-opacity="1" fill-rule="nonzero"/><path fill="#5479f7" d="M 565.953125 218.441406 C 562.390625 218.28125 558.78125 217.589844 555.296875 216.128906 C 536.503906 208.246094 547.671875 177.839844 547.671875 177.839844 L 536.117188 165.054688 C 505.167969 189.546875 516.578125 227.617188 543.484375 236.472656 C 552.863281 239.5625 561.636719 238.980469 569.335938 236.636719 C 562.511719 229.515625 563.992188 222.550781 565.953125 218.441406 " fill-opacity="1" fill-rule="nonzero"/><path fill="#ffffff" d="M 611.222656 199.433594 L 610.339844 193.957031 L 600.78125 204.5625 L 603.503906 199.382812 C 603.503906 199.382812 601.191406 200.164062 599.355469 202.136719 C 597.570312 204.046875 595.410156 209.871094 595.277344 210.222656 C 591.472656 212.4375 579.003906 219.015625 565.957031 218.441406 C 563.992188 222.550781 561.898438 228.84375 568.722656 235.964844 C 587 230.402344 599.859375 215.554688 599.859375 215.554688 C 608.210938 211.371094 611.222656 199.433594 611.222656 199.433594 " fill-opacity="1" fill-rule="nonzero"/><path fill="#000000" d="M 566.398438 219.167969 C 564.457031 223.390625 563.183594 228.9375 568.929688 235.160156 C 586.574219 229.621094 599.195312 215.238281 599.320312 215.09375 C 599.382812 215.023438 599.453125 214.96875 599.539062 214.925781 C 607.039062 211.167969 610.128906 200.71875 610.492188 199.402344 L 609.871094 195.53125 L 601.304688 205.042969 C 601.0625 205.308594 600.664062 205.355469 600.371094 205.148438 C 600.082031 204.945312 599.984375 204.554688 600.148438 204.234375 L 601.851562 201.003906 C 601.21875 201.402344 600.511719 201.933594 599.867188 202.621094 C 598.507812 204.078125 596.703125 208.394531 595.941406 210.46875 C 595.882812 210.625 595.777344 210.753906 595.632812 210.835938 C 592.070312 212.910156 579.535156 219.585938 566.398438 219.167969 Z M 568.71875 236.675781 C 568.527344 236.675781 568.34375 236.601562 568.207031 236.460938 C 561.316406 229.265625 563.039062 222.886719 565.3125 218.136719 C 565.4375 217.878906 565.691406 217.71875 565.988281 217.734375 C 578.664062 218.296875 590.90625 211.921875 594.699219 209.738281 C 595.179688 208.464844 597.117188 203.492188 598.832031 201.65625 C 600.773438 199.578125 603.171875 198.75 603.277344 198.714844 C 603.550781 198.621094 603.851562 198.707031 604.042969 198.929688 C 604.226562 199.148438 604.265625 199.460938 604.128906 199.71875 L 604.039062 199.886719 L 609.808594 193.484375 C 609.992188 193.28125 610.273438 193.203125 610.535156 193.28125 C 610.796875 193.355469 610.992188 193.578125 611.035156 193.84375 L 611.917969 199.324219 C 611.933594 199.417969 611.925781 199.515625 611.90625 199.609375 C 611.78125 200.109375 608.746094 211.796875 600.296875 216.128906 C 599.078125 217.492188 586.371094 231.335938 568.925781 236.648438 C 568.855469 236.667969 568.789062 236.675781 568.71875 236.675781 " fill-opacity="1" fill-rule="nonzero"/><path fill="#000000" d="M 559.292969 218.507812 C 559.214844 218.507812 559.140625 218.496094 559.0625 218.472656 C 544.449219 213.484375 543.367188 201.417969 544.050781 191.464844 C 544.078125 191.074219 544.425781 190.78125 544.808594 190.804688 C 545.199219 190.832031 545.492188 191.171875 545.46875 191.5625 C 544.484375 205.785156 548.6875 213.433594 559.519531 217.128906 C 559.890625 217.253906 560.089844 217.65625 559.964844 218.027344 C 559.863281 218.324219 559.585938 218.507812 559.292969 218.507812 " fill-opacity="1" fill-rule="nonzero"/><path fill="#000000" d="M 558.363281 239.226562 C 558.351562 239.226562 558.335938 239.226562 558.320312 239.226562 C 546.648438 238.53125 539.257812 236.71875 535.054688 233.515625 C 534.742188 233.28125 534.683594 232.835938 534.921875 232.523438 C 535.160156 232.210938 535.601562 232.152344 535.914062 232.390625 C 539.828125 235.367188 547.183594 237.144531 558.40625 237.808594 C 558.796875 237.832031 559.09375 238.167969 559.070312 238.5625 C 559.050781 238.9375 558.738281 239.226562 558.363281 239.226562 " fill-opacity="1" fill-rule="nonzero"/><path fill="#ffffff" d="M 565.820312 152.855469 C 570.734375 151.882812 572.785156 136.582031 572.851562 136.367188 C 572.855469 136.359375 572.855469 136.351562 572.855469 136.347656 L 556.871094 135.316406 C 557.179688 136.15625 557.488281 136.921875 557.570312 137.453125 C 557.867188 139.253906 554.859375 137 553.558594 137.585938 C 552.695312 137.96875 552.367188 139.140625 553.207031 140.742188 C 553.734375 141.746094 554.613281 142.726562 555.398438 143.191406 C 555.523438 144.140625 555.773438 145.082031 556.125 145.984375 L 556.089844 145.964844 L 551.78125 159.246094 L 543.03125 163.136719 C 564.214844 172.542969 570.921875 163.175781 570.921875 163.175781 L 562.875 160.128906 L 563.785156 152.910156 C 564.453125 153.003906 565.136719 152.992188 565.820312 152.855469 " fill-opacity="1" fill-rule="nonzero"/><path fill="#000000" d="M 565.820312 152.851562 L 565.828125 152.851562 Z M 544.804688 163.125 C 560.507812 169.652344 567.589844 165.285156 569.667969 163.457031 L 562.628906 160.789062 C 562.320312 160.667969 562.132812 160.359375 562.171875 160.035156 L 563.082031 152.820312 C 563.105469 152.632812 563.207031 152.464844 563.351562 152.347656 C 563.503906 152.230469 563.691406 152.183594 563.878906 152.207031 C 564.496094 152.289062 565.101562 152.273438 565.683594 152.160156 C 568.144531 151.667969 570.5625 145.878906 572.03125 137 L 557.917969 136.089844 C 558.082031 136.558594 558.214844 136.976562 558.273438 137.335938 C 558.386719 138.023438 558.144531 138.398438 557.917969 138.59375 C 557.34375 139.089844 556.527344 138.832031 555.585938 138.535156 C 555.019531 138.355469 554.164062 138.085938 553.847656 138.230469 C 553.675781 138.304688 553.554688 138.441406 553.488281 138.632812 C 553.339844 139.0625 553.464844 139.707031 553.835938 140.410156 C 554.292969 141.285156 555.085938 142.175781 555.761719 142.582031 C 555.949219 142.691406 556.078125 142.882812 556.101562 143.097656 C 556.21875 143.964844 556.445312 144.847656 556.789062 145.722656 C 556.878906 145.957031 556.839844 146.222656 556.6875 146.414062 L 552.460938 159.460938 C 552.398438 159.652344 552.257812 159.804688 552.074219 159.890625 Z M 559.765625 168.058594 C 555.523438 168.058594 549.953125 166.984375 542.746094 163.785156 C 542.492188 163.671875 542.324219 163.417969 542.324219 163.136719 C 542.324219 162.859375 542.492188 162.601562 542.746094 162.488281 L 551.210938 158.722656 L 555.355469 145.9375 C 555.070312 145.160156 554.867188 144.382812 554.746094 143.605469 C 553.925781 143.023438 553.101562 142.066406 552.578125 141.070312 C 551.867188 139.707031 551.953125 138.742188 552.148438 138.167969 C 552.34375 137.609375 552.738281 137.167969 553.265625 136.933594 C 554.078125 136.574219 555.105469 136.898438 556.011719 137.183594 C 556.265625 137.261719 556.601562 137.367188 556.84375 137.421875 C 556.757812 137.046875 556.566406 136.515625 556.359375 135.960938 L 556.210938 135.554688 C 556.128906 135.332031 556.164062 135.082031 556.308594 134.890625 C 556.449219 134.695312 556.683594 134.59375 556.921875 134.605469 L 572.90625 135.636719 C 573.117188 135.652344 573.316406 135.761719 573.441406 135.9375 C 573.5625 136.113281 573.597656 136.335938 573.539062 136.542969 C 573.539062 136.554688 573.523438 136.640625 573.5 136.773438 C 572.5625 142.667969 570.335938 152.683594 565.957031 153.550781 C 565.453125 153.648438 564.929688 153.691406 564.40625 153.671875 L 563.652344 159.660156 L 571.175781 162.511719 C 571.378906 162.589844 571.539062 162.757812 571.601562 162.96875 C 571.667969 163.175781 571.625 163.40625 571.5 163.585938 C 571.308594 163.851562 568.152344 168.058594 559.765625 168.058594 " fill-opacity="1" fill-rule="nonzero"/><path fill="#ffffff" d="M 558.949219 149.070312 C 558.949219 149.070312 559.945312 152.605469 563.78125 152.914062 L 558.949219 149.070312 " fill-opacity="1" fill-rule="nonzero"/><path fill="#000000" d="M 563.785156 153.621094 C 563.765625 153.621094 563.75 153.621094 563.726562 153.617188 C 559.441406 153.273438 558.3125 149.421875 558.269531 149.261719 C 558.160156 148.882812 558.382812 148.492188 558.757812 148.386719 C 559.136719 148.28125 559.523438 148.496094 559.632812 148.871094 C 559.667969 149 560.558594 151.941406 563.84375 152.203125 C 564.234375 152.234375 564.519531 152.578125 564.492188 152.96875 C 564.460938 153.339844 564.152344 153.621094 563.785156 153.621094 " fill-opacity="1" fill-rule="nonzero"/><path fill="#caddff" d="M 477.691406 464.980469 C 477.691406 464.980469 457.589844 420.90625 469.121094 363.765625 C 469.121094 363.765625 500.28125 389.882812 489.046875 464.980469 L 477.691406 464.980469 " fill-opacity="1" fill-rule="nonzero"/><path fill="#000000" d="M 478.15625 464.273438 L 488.4375 464.273438 C 494.066406 425.976562 488.402344 400.839844 482.640625 386.476562 C 477.652344 374.054688 471.777344 367.386719 469.566406 365.164062 C 463.960938 394.023438 466.5625 419.355469 469.769531 435.617188 C 472.914062 451.566406 477.226562 462.101562 478.15625 464.273438 Z M 489.046875 465.691406 L 477.691406 465.691406 C 477.414062 465.691406 477.164062 465.527344 477.046875 465.273438 C 476.996094 465.164062 471.945312 453.972656 468.386719 435.9375 C 465.105469 419.304688 462.445312 393.257812 468.425781 363.628906 C 468.476562 363.382812 468.652344 363.179688 468.886719 363.101562 C 469.121094 363.015625 469.386719 363.0625 469.574219 363.222656 C 469.902344 363.496094 477.574219 370.050781 483.953125 385.949219 C 489.8125 400.550781 495.574219 426.136719 489.75 465.085938 C 489.699219 465.433594 489.398438 465.691406 489.046875 465.691406 " fill-opacity="1" fill-rule="nonzero"/><path fill="#ffffff" d="M 482.609375 461.09375 C 482.597656 461.09375 482.585938 461.09375 482.570312 461.09375 C 482.179688 461.070312 481.878906 460.738281 481.902344 460.34375 C 483.441406 432.183594 470.738281 372.050781 470.613281 371.449219 C 470.53125 371.0625 470.773438 370.691406 471.15625 370.605469 C 471.539062 370.523438 471.917969 370.769531 472 371.152344 C 472.125 371.757812 484.867188 432.074219 483.316406 460.421875 C 483.296875 460.800781 482.984375 461.09375 482.609375 461.09375 " fill-opacity="1" fill-rule="nonzero"/><path fill="#ffffff" d="M 497.917969 393.324219 C 497.917969 393.324219 472.015625 440.128906 487.597656 460.382812 L 495.933594 460.382812 C 495.933594 460.382812 512.589844 423.796875 497.917969 393.324219 " fill-opacity="1" fill-rule="nonzero"/><path fill="#000000" d="M 487.949219 459.675781 L 495.46875 459.675781 C 497.195312 455.613281 510.394531 422.742188 497.878906 394.914062 C 493.972656 402.414062 474.636719 441.710938 487.949219 459.675781 Z M 495.933594 461.09375 L 487.597656 461.09375 C 487.378906 461.09375 487.167969 460.992188 487.035156 460.816406 C 480.425781 452.222656 480.15625 438.167969 486.238281 419.042969 C 490.738281 404.90625 497.234375 393.097656 497.296875 392.980469 C 497.425781 392.746094 497.664062 392.601562 497.941406 392.613281 C 498.203125 392.621094 498.445312 392.777344 498.558594 393.015625 C 506.21875 408.925781 505.269531 426.480469 503.125 438.40625 C 500.804688 451.300781 496.621094 460.585938 496.578125 460.679688 C 496.460938 460.933594 496.210938 461.09375 495.933594 461.09375 " fill-opacity="1" fill-rule="nonzero"/><path fill="#000000" d="M 491.488281 462.335938 C 491.109375 462.335938 490.796875 462.035156 490.78125 461.652344 C 490.03125 442.320312 497.148438 393.707031 497.21875 393.21875 C 497.273438 392.832031 497.640625 392.5625 498.023438 392.621094 C 498.410156 392.679688 498.675781 393.039062 498.621094 393.425781 C 498.546875 393.914062 491.453125 442.394531 492.199219 461.597656 C 492.210938 461.988281 491.910156 462.316406 491.515625 462.332031 C 491.507812 462.335938 491.496094 462.335938 491.488281 462.335938 " fill-opacity="1" fill-rule="nonzero"/><path fill="#ffffff" d="M 448.464844 410.773438 C 448.464844 410.773438 470.53125 418.300781 478.519531 462.878906 L 469.839844 462.878906 C 469.839844 462.878906 451.730469 438.398438 448.464844 410.773438 " fill-opacity="1" fill-rule="nonzero"/><path fill="#000000" d="M 470.203125 462.171875 L 477.671875 462.171875 C 470.765625 424.863281 453.789062 414.140625 449.324219 411.925781 C 452.699219 436.964844 468.222656 459.394531 470.203125 462.171875 Z M 478.519531 463.589844 L 469.839844 463.589844 C 469.617188 463.589844 469.402344 463.480469 469.269531 463.300781 C 469.089844 463.054688 451.007812 438.351562 447.761719 410.855469 C 447.730469 410.613281 447.828125 410.375 448.019531 410.222656 C 448.207031 410.066406 448.464844 410.023438 448.691406 410.101562 C 448.925781 410.179688 454.464844 412.132812 461.03125 419.640625 C 467.035156 426.511719 475.0625 439.566406 479.21875 462.757812 C 479.253906 462.960938 479.199219 463.175781 479.066406 463.335938 C 478.929688 463.496094 478.730469 463.589844 478.519531 463.589844 " fill-opacity="1" fill-rule="nonzero"/><path fill="#000000" d="M 473.777344 462.335938 C 473.433594 462.335938 473.136719 462.089844 473.078125 461.738281 C 469.800781 441.925781 455.601562 421.949219 455.457031 421.75 C 455.230469 421.429688 455.304688 420.988281 455.621094 420.761719 C 455.941406 420.53125 456.382812 420.605469 456.609375 420.921875 C 456.753906 421.125 471.140625 441.363281 474.476562 461.507812 C 474.542969 461.894531 474.277344 462.261719 473.894531 462.324219 C 473.855469 462.332031 473.8125 462.335938 473.777344 462.335938 " fill-opacity="1" fill-rule="nonzero"/><path fill="#5479f7" d="M 456.976562 459.339844 L 511.417969 459.339844 L 512.636719 485.097656 C 512.9375 491.410156 507.898438 496.695312 501.578125 496.695312 L 470.488281 496.695312 C 463.007812 496.695312 456.949219 490.628906 456.953125 483.148438 L 456.976562 459.339844 " fill-opacity="1" fill-rule="nonzero"/><path fill="#000000" d="M 587.5625 324.945312 C 587.175781 324.945312 586.863281 324.636719 586.855469 324.253906 L 586.800781 321.738281 C 586.792969 321.347656 587.101562 321.027344 587.492188 321.015625 C 587.496094 321.015625 587.503906 321.015625 587.507812 321.015625 C 587.890625 321.015625 588.207031 321.324219 588.214844 321.710938 L 588.269531 324.226562 C 588.277344 324.613281 587.96875 324.9375 587.578125 324.945312 C 587.570312 324.945312 587.566406 324.945312 587.5625 324.945312 " fill-opacity="1" fill-rule="nonzero"/><path fill="#000000" d="M 587.75 333.746094 C 587.367188 333.746094 587.050781 333.4375 587.042969 333.050781 L 586.988281 330.539062 C 586.980469 330.144531 587.292969 329.820312 587.679688 329.8125 C 587.6875 329.8125 587.691406 329.8125 587.695312 329.8125 C 588.082031 329.8125 588.394531 330.121094 588.402344 330.507812 L 588.460938 333.023438 C 588.46875 333.414062 588.15625 333.734375 587.765625 333.746094 C 587.761719 333.746094 587.757812 333.746094 587.75 333.746094 " fill-opacity="1" fill-rule="nonzero"/><path fill="#000000" d="M 582.054688 328.136719 C 581.664062 328.136719 581.351562 327.820312 581.34375 327.429688 C 581.34375 327.039062 581.660156 326.71875 582.050781 326.71875 L 584.527344 326.699219 C 584.527344 326.699219 584.527344 326.699219 584.53125 326.699219 C 584.921875 326.699219 585.238281 327.011719 585.238281 327.398438 C 585.242188 327.792969 584.929688 328.113281 584.539062 328.117188 L 582.058594 328.136719 C 582.058594 328.136719 582.054688 328.136719 582.054688 328.136719 " fill-opacity="1" fill-rule="nonzero"/><path fill="#000000" d="M 590.722656 328.066406 C 590.332031 328.066406 590.015625 327.75 590.015625 327.363281 C 590.007812 326.972656 590.324219 326.652344 590.71875 326.648438 L 593.195312 326.628906 C 593.578125 326.625 593.902344 326.9375 593.910156 327.332031 C 593.910156 327.722656 593.59375 328.042969 593.203125 328.046875 L 590.726562 328.066406 C 590.726562 328.066406 590.726562 328.066406 590.722656 328.066406 " fill-opacity="1" fill-rule="nonzero"/><path fill="#000000" d="M 584.53125 469.597656 C 584.351562 469.597656 584.167969 469.527344 584.027344 469.390625 C 583.753906 469.113281 583.753906 468.664062 584.027344 468.386719 L 634.453125 417.957031 C 634.730469 417.679688 635.179688 417.679688 635.453125 417.957031 C 635.730469 418.234375 635.730469 418.683594 635.453125 418.960938 L 585.03125 469.390625 C 584.894531 469.527344 584.714844 469.597656 584.53125 469.597656 " fill-opacity="1" fill-rule="nonzero"/><path fill="#000000" d="M 563.785156 473.894531 C 563.605469 473.894531 563.425781 473.824219 563.285156 473.6875 C 563.007812 473.410156 563.007812 472.960938 563.285156 472.683594 L 591.507812 444.457031 C 591.785156 444.179688 592.234375 444.179688 592.511719 444.457031 C 592.789062 444.734375 592.789062 445.183594 592.511719 445.460938 L 564.289062 473.6875 C 564.148438 473.824219 563.96875 473.894531 563.785156 473.894531 " fill-opacity="1" fill-rule="nonzero"/><path fill="#000000" d="M 520.066406 119.148438 C 519.066406 119.148438 518.257812 119.960938 518.257812 120.957031 C 518.257812 121.953125 519.066406 122.761719 520.066406 122.761719 C 521.058594 122.761719 521.871094 121.953125 521.871094 120.957031 C 521.871094 119.960938 521.058594 119.148438 520.066406 119.148438 Z M 520.066406 124.179688 C 518.285156 124.179688 516.839844 122.730469 516.839844 120.957031 C 516.839844 119.179688 518.285156 117.730469 520.066406 117.730469 C 521.84375 117.730469 523.289062 119.179688 523.289062 120.957031 C 523.289062 122.730469 521.84375 124.179688 520.066406 124.179688 " fill-opacity="1" fill-rule="nonzero"/><path fill="#000000" d="M 666.546875 247.542969 C 662.578125 247.542969 659.347656 244.3125 659.347656 240.339844 C 659.347656 236.371094 662.578125 233.140625 666.546875 233.140625 C 666.9375 233.140625 667.257812 233.453125 667.257812 233.847656 C 667.257812 234.238281 666.9375 234.558594 666.546875 234.558594 C 663.359375 234.558594 660.765625 237.152344 660.765625 240.339844 C 660.765625 243.53125 663.359375 246.121094 666.546875 246.121094 C 669.738281 246.121094 672.328125 243.53125 672.328125 240.339844 C 672.328125 239.949219 672.648438 239.628906 673.039062 239.628906 C 673.429688 239.628906 673.746094 239.949219 673.746094 240.339844 C 673.746094 244.3125 670.519531 247.542969 666.546875 247.542969 " fill-opacity="1" fill-rule="nonzero"/><path fill="#ffffff" d="M 455.5 152.480469 C 455.5 154.421875 453.925781 155.996094 451.984375 155.996094 C 450.039062 155.996094 448.464844 154.421875 448.464844 152.480469 C 448.464844 150.535156 450.039062 148.960938 451.984375 148.960938 C 453.925781 148.960938 455.5 150.535156 455.5 152.480469 " fill-opacity="1" fill-rule="nonzero"/><path fill="#000000" d="M 480.324219 156.640625 C 480.140625 156.640625 479.960938 156.566406 479.820312 156.429688 C 479.542969 156.15625 479.542969 155.707031 479.820312 155.425781 L 505.992188 129.253906 C 506.269531 128.976562 506.714844 128.976562 506.992188 129.253906 C 507.269531 129.53125 507.269531 129.980469 506.992188 130.257812 L 480.824219 156.429688 C 480.683594 156.566406 480.503906 156.640625 480.324219 156.640625 " fill-opacity="1" fill-rule="nonzero"/><path fill="#000000" d="M 654.753906 309.449219 C 654.570312 309.449219 654.386719 309.378906 654.25 309.242188 C 653.972656 308.964844 653.972656 308.515625 654.25 308.238281 L 683.355469 279.128906 C 683.632812 278.851562 684.082031 278.851562 684.359375 279.128906 C 684.636719 279.402344 684.636719 279.851562 684.359375 280.128906 L 655.253906 309.242188 C 655.113281 309.378906 654.933594 309.449219 654.753906 309.449219 " fill-opacity="1" fill-rule="nonzero"/></svg>